<svg width="39" height="39" viewBox="0 0 39 39" fill="none" xmlns="http://www.w3.org/2000/svg">
<g id="BsClock" opacity="0.7">
<path id="Vector" d="M19.5 8.53125C19.5 8.20802 19.3716 7.89802 19.143 7.66946C18.9145 7.4409 18.6045 7.3125 18.2812 7.3125C17.958 7.3125 17.648 7.4409 17.4195 7.66946C17.1909 7.89802 17.0625 8.20802 17.0625 8.53125V21.9375C17.0626 22.1523 17.1194 22.3633 17.2273 22.5491C17.3352 22.7349 17.4902 22.8888 17.6767 22.9954L26.208 27.8704C26.488 28.0217 26.816 28.0575 27.122 27.9701C27.428 27.8828 27.6877 27.6792 27.8456 27.4029C28.0035 27.1266 28.0471 26.7994 27.967 26.4915C27.8869 26.1835 27.6895 25.919 27.417 25.7546L19.5 21.2306V8.53125Z" fill="white"/>
<path id="Vector_2" d="M19.5 39C24.6717 39 29.6316 36.9455 33.2886 33.2886C36.9455 29.6316 39 24.6717 39 19.5C39 14.3283 36.9455 9.36838 33.2886 5.71142C29.6316 2.05446 24.6717 0 19.5 0C14.3283 0 9.36838 2.05446 5.71142 5.71142C2.05446 9.36838 0 14.3283 0 19.5C0 24.6717 2.05446 29.6316 5.71142 33.2886C9.36838 36.9455 14.3283 39 19.5 39ZM36.5625 19.5C36.5625 24.0253 34.7648 28.3652 31.565 31.565C28.3652 34.7648 24.0253 36.5625 19.5 36.5625C14.9747 36.5625 10.6348 34.7648 7.43499 31.565C4.23515 28.3652 2.4375 24.0253 2.4375 19.5C2.4375 14.9747 4.23515 10.6348 7.43499 7.43499C10.6348 4.23515 14.9747 2.4375 19.5 2.4375C24.0253 2.4375 28.3652 4.23515 31.565 7.43499C34.7648 10.6348 36.5625 14.9747 36.5625 19.5Z" fill="white"/>
</g>
</svg>
