<svg width="18" height="18" viewBox="0 0 18 18" fill="none" xmlns="http://www.w3.org/2000/svg">
<g id="BsGear">
<path id="Vector" d="M9.00002 5.34814C8.52046 5.34814 8.0456 5.4426 7.60255 5.62612C7.1595 5.80964 6.75694 6.07862 6.41784 6.41772C6.07874 6.75681 5.80976 7.15938 5.62624 7.60243C5.44272 8.04548 5.34827 8.52034 5.34827 8.99989C5.34827 9.47945 5.44272 9.95431 5.62624 10.3974C5.80976 10.8404 6.07874 11.243 6.41784 11.5821C6.75694 11.9212 7.1595 12.1902 7.60255 12.3737C8.0456 12.5572 8.52046 12.6516 9.00002 12.6516C9.96852 12.6516 10.8974 12.2669 11.5822 11.5821C12.267 10.8972 12.6518 9.9684 12.6518 8.99989C12.6518 8.03139 12.267 7.10255 11.5822 6.41772C10.8974 5.73288 9.96852 5.34814 9.00002 5.34814ZM6.47327 8.99989C6.47327 8.32976 6.73948 7.68707 7.21333 7.21321C7.68719 6.73935 8.32988 6.47314 9.00002 6.47314C9.67015 6.47314 10.3128 6.73935 10.7867 7.21321C11.2606 7.68707 11.5268 8.32976 11.5268 8.99989C11.5268 9.67003 11.2606 10.3127 10.7867 10.7866C10.3128 11.2604 9.67015 11.5266 9.00002 11.5266C8.32988 11.5266 7.68719 11.2604 7.21333 10.7866C6.73948 10.3127 6.47327 9.67003 6.47327 8.99989Z" fill="#D9D0EC"/>
<path id="Vector_2" d="M11.0207 1.51104C10.4278 -0.502705 7.57254 -0.502705 6.97967 1.51104L6.87392 1.86992C6.83252 2.01049 6.76018 2.14002 6.66221 2.249C6.56425 2.35798 6.44313 2.44366 6.30775 2.49975C6.17237 2.55585 6.02615 2.58094 5.87982 2.57318C5.73348 2.56542 5.59074 2.52501 5.46204 2.45492L5.13354 2.27492C3.28854 1.27142 1.27142 3.28967 2.27604 5.13354L2.45492 5.46204C2.52501 5.59074 2.56542 5.73348 2.57318 5.87982C2.58094 6.02615 2.55585 6.17237 2.49975 6.30775C2.44366 6.44313 2.35798 6.56425 2.249 6.66221C2.14002 6.76018 2.01049 6.83252 1.86992 6.87392L1.51104 6.97967C-0.502705 7.57254 -0.502705 10.4278 1.51104 11.0207L1.86992 11.1264C2.01049 11.1678 2.14002 11.2402 2.249 11.3381C2.35798 11.4361 2.44366 11.5572 2.49975 11.6926C2.55585 11.828 2.58094 11.9742 2.57318 12.1205C2.56542 12.2669 2.52501 12.4096 2.45492 12.5383L2.27492 12.8668C1.27142 14.7118 3.28854 16.73 5.13354 15.7243L5.46204 15.5454C5.59074 15.4753 5.73348 15.4349 5.87982 15.4272C6.02615 15.4194 6.17237 15.4445 6.30775 15.5006C6.44313 15.5567 6.56425 15.6424 6.66221 15.7513C6.76018 15.8603 6.83252 15.9898 6.87392 16.1304L6.97967 16.4893C7.57254 18.503 10.4278 18.503 11.0207 16.4893L11.1264 16.1304C11.1678 15.9898 11.2402 15.8603 11.3381 15.7513C11.4361 15.6424 11.5572 15.5567 11.6926 15.5006C11.828 15.4445 11.9742 15.4194 12.1205 15.4272C12.2669 15.4349 12.4096 15.4753 12.5383 15.5454L12.8668 15.7254C14.7118 16.73 16.73 14.7107 15.7243 12.8668L15.5454 12.5383C15.4753 12.4096 15.4349 12.2669 15.4272 12.1205C15.4194 11.9742 15.4445 11.828 15.5006 11.6926C15.5567 11.5572 15.6424 11.4361 15.7513 11.3381C15.8603 11.2402 15.9898 11.1678 16.1304 11.1264L16.4893 11.0207C18.503 10.4278 18.503 7.57254 16.4893 6.97967L16.1304 6.87392C15.9898 6.83252 15.8603 6.76018 15.7513 6.66221C15.6424 6.56425 15.5567 6.44313 15.5006 6.30775C15.4445 6.17237 15.4194 6.02615 15.4272 5.87982C15.4349 5.73348 15.4753 5.59074 15.5454 5.46204L15.7254 5.13354C16.73 3.28854 14.7107 1.27142 12.8668 2.27604L12.5383 2.45492C12.4096 2.52501 12.2669 2.56542 12.1205 2.57318C11.9742 2.58094 11.828 2.55585 11.6926 2.49975C11.5572 2.44366 11.4361 2.35798 11.3381 2.249C11.2402 2.14002 11.1678 2.01049 11.1264 1.86992L11.0207 1.51104ZM8.05855 1.82942C8.33529 0.890045 9.66504 0.890045 9.9418 1.82942L10.0475 2.18829C10.1364 2.48989 10.2917 2.76777 10.502 3.00156C10.7122 3.23534 10.9721 3.41912 11.2626 3.5394C11.5531 3.65968 11.8669 3.71342 12.1809 3.69668C12.4948 3.67995 12.8011 3.59315 13.0772 3.44267L13.4045 3.26267C14.264 2.79579 15.2045 3.73517 14.7365 4.59579L14.5577 4.92429C14.4074 5.2004 14.3208 5.50663 14.3043 5.82053C14.2877 6.13444 14.3416 6.44807 14.462 6.73845C14.5824 7.02883 14.7662 7.2886 15 7.49872C15.2338 7.70884 15.5116 7.86399 15.8132 7.95279L16.1709 8.05855C17.1103 8.33529 17.1103 9.66504 16.1709 9.9418L15.812 10.0475C15.5104 10.1364 15.2326 10.2917 14.9988 10.502C14.765 10.7122 14.5812 10.9721 14.4609 11.2626C14.3407 11.5531 14.2869 11.8669 14.3037 12.1809C14.3204 12.4948 14.4072 12.8011 14.5577 13.0772L14.7377 13.4045C15.2045 14.264 14.2652 15.2045 13.4045 14.7365L13.0772 14.5577C12.801 14.4072 12.4947 14.3205 12.1807 14.3038C11.8666 14.2871 11.5528 14.341 11.2623 14.4614C10.9718 14.5817 10.7119 14.7656 10.5017 14.9996C10.2915 15.2335 10.1363 15.5115 10.0475 15.8132L9.9418 16.1709C9.66504 17.1103 8.33529 17.1103 8.05855 16.1709L7.95279 15.812C7.86386 15.5106 7.70862 15.2329 7.49844 14.9992C7.28827 14.7655 7.02848 14.5818 6.73812 14.4616C6.44776 14.3413 6.13417 14.2875 5.82032 14.3041C5.50648 14.3208 5.20033 14.4074 4.92429 14.5577L4.59579 14.7377C3.73629 15.2045 2.79579 14.2652 3.26379 13.4045L3.44267 13.0772C3.59337 12.8011 3.68033 12.4947 3.69717 12.1806C3.71402 11.8665 3.66033 11.5526 3.54003 11.2619C3.41974 10.9713 3.23589 10.7112 3.00198 10.5009C2.76808 10.2906 2.49005 10.1353 2.18829 10.0464L1.82942 9.94067C0.890045 9.66392 0.890045 8.33417 1.82942 8.05742L2.18829 7.95167C2.48958 7.86269 2.76715 7.70748 3.0007 7.49738C3.23426 7.28729 3.41788 7.02763 3.53813 6.73741C3.65838 6.44719 3.71222 6.13375 3.6957 5.82004C3.67918 5.50633 3.59273 5.20028 3.44267 4.92429L3.26267 4.59579C2.79579 3.73629 3.73517 2.79579 4.59579 3.26379L4.92429 3.44267C5.20033 3.59294 5.50648 3.67956 5.82032 3.69619C6.13417 3.71282 6.44776 3.65903 6.73812 3.53876C7.02848 3.4185 7.28827 3.2348 7.49844 3.00113C7.70862 2.76746 7.86386 2.48973 7.95279 2.18829L8.05855 1.82942Z" fill="#D9D0EC"/>
</g>
</svg>
