<svg width="12" height="12" viewBox="0 0 12 12" fill="none" xmlns="http://www.w3.org/2000/svg">
<g id="CkInfoOutline" clip-path="url(#clip0_1112_528)">
<path id="Vector" fill-rule="evenodd" clip-rule="evenodd" d="M1 6C1 3.23858 3.23858 1 6 1C8.76142 1 11 3.23858 11 6C11 8.76142 8.76142 11 6 11C3.23858 11 1 8.76142 1 6ZM6 0C2.68629 0 0 2.68629 0 6C0 9.31371 2.68629 12 6 12C9.31371 12 12 9.31371 12 6C12 2.68629 9.31371 0 6 0ZM5.97953 4.00007C6.25567 4.00007 6.47953 3.77621 6.47953 3.50007C6.47953 3.22393 6.25567 3.00007 5.97953 3.00007C5.70338 3.00007 5.47953 3.22393 5.47953 3.50007C5.47953 3.77621 5.70338 4.00007 5.97953 4.00007ZM6.47942 5.00014V5.50014V8.50014V9.00014H5.47942V8.50014V5.50014V5.00014H6.47942Z" fill="white"/>
</g>
<defs>
<clipPath id="clip0_1112_528">
<rect width="12" height="12" fill="white"/>
</clipPath>
</defs>
</svg>
