<svg width="40" height="40" viewBox="0 0 40 40" fill="none" xmlns="http://www.w3.org/2000/svg">
<g id="FiCalendar" opacity="0.7">
<path id="Vector (Stroke)" fill-rule="evenodd" clip-rule="evenodd" d="M8.33337 8.33333C7.4129 8.33333 6.66671 9.07952 6.66671 10V33.3333C6.66671 34.2538 7.4129 35 8.33337 35H31.6667C32.5872 35 33.3334 34.2538 33.3334 33.3333V10C33.3334 9.07952 32.5872 8.33333 31.6667 8.33333H8.33337ZM3.33337 10C3.33337 7.23858 5.57195 5 8.33337 5H31.6667C34.4281 5 36.6667 7.23858 36.6667 10V33.3333C36.6667 36.0948 34.4281 38.3333 31.6667 38.3333H8.33337C5.57195 38.3333 3.33337 36.0948 3.33337 33.3333V10Z" fill="white"/>
<path id="Vector (Stroke)_2" fill-rule="evenodd" clip-rule="evenodd" d="M26.6667 1.66675C27.5871 1.66675 28.3333 2.41294 28.3333 3.33341V10.0001C28.3333 10.9206 27.5871 11.6667 26.6667 11.6667C25.7462 11.6667 25 10.9206 25 10.0001V3.33341C25 2.41294 25.7462 1.66675 26.6667 1.66675Z" fill="white"/>
<path id="Vector (Stroke)_3" fill-rule="evenodd" clip-rule="evenodd" d="M13.3333 1.66675C14.2538 1.66675 15 2.41294 15 3.33341V10.0001C15 10.9206 14.2538 11.6667 13.3333 11.6667C12.4128 11.6667 11.6666 10.9206 11.6666 10.0001V3.33341C11.6666 2.41294 12.4128 1.66675 13.3333 1.66675Z" fill="white"/>
<path id="Vector (Stroke)_4" fill-rule="evenodd" clip-rule="evenodd" d="M3.33337 16.6667C3.33337 15.7462 4.07957 15 5.00004 15H35C35.9205 15 36.6667 15.7462 36.6667 16.6667C36.6667 17.5871 35.9205 18.3333 35 18.3333H5.00004C4.07957 18.3333 3.33337 17.5871 3.33337 16.6667Z" fill="white"/>
</g>
</svg>
