<svg width="39" height="39" viewBox="0 0 39 39" fill="none" xmlns="http://www.w3.org/2000/svg">
<g id="FiCreditCard" opacity="0.7">
<path id="Vector (Stroke)" fill-rule="evenodd" clip-rule="evenodd" d="M4.875 8.125C3.97754 8.125 3.25 8.85254 3.25 9.75V29.25C3.25 30.1475 3.97754 30.875 4.875 30.875H34.125C35.0225 30.875 35.75 30.1475 35.75 29.25V9.75C35.75 8.85254 35.0225 8.125 34.125 8.125H4.875ZM0 9.75C0 7.05761 2.18261 4.875 4.875 4.875H34.125C36.8174 4.875 39 7.05761 39 9.75V29.25C39 31.9424 36.8174 34.125 34.125 34.125H4.875C2.18261 34.125 0 31.9424 0 29.25V9.75Z" fill="white"/>
<path id="Vector (Stroke)_2" fill-rule="evenodd" clip-rule="evenodd" d="M0 16.25C0 15.3525 0.727537 14.625 1.625 14.625H37.375C38.2725 14.625 39 15.3525 39 16.25C39 17.1475 38.2725 17.875 37.375 17.875H1.625C0.727537 17.875 0 17.1475 0 16.25Z" fill="white"/>
</g>
</svg>
