<svg width="16" height="16" viewBox="0 0 16 16" fill="none" xmlns="http://www.w3.org/2000/svg">
<g id="FiFilter">
<path id="Vector (Stroke)" fill-rule="evenodd" clip-rule="evenodd" d="M0.728678 1.71933C0.837917 1.48389 1.07387 1.33325 1.33342 1.33325H14.6668C14.9263 1.33325 15.1623 1.48389 15.2715 1.71933C15.3807 1.95478 15.3434 2.23222 15.1758 2.4304L10.0001 8.55068V13.9999C10.0001 14.231 9.88046 14.4455 9.68391 14.567C9.48737 14.6885 9.24194 14.6995 9.03528 14.5962L6.36861 13.2629C6.14276 13.1499 6.00009 12.9191 6.00009 12.6666V8.55068L0.824377 2.4304C0.656779 2.23222 0.61944 1.95478 0.728678 1.71933ZM2.77029 2.66659L7.1758 7.8761C7.27758 7.99645 7.33342 8.14897 7.33342 8.30659V12.2546L8.66676 12.9212V8.30659C8.66676 8.14897 8.7226 7.99645 8.82438 7.8761L13.2299 2.66659H2.77029Z" fill="#718096"/>
</g>
</svg>
