<svg width="18" height="18" viewBox="0 0 18 18" fill="none" xmlns="http://www.w3.org/2000/svg">
<g id="FiPieChart">
<path id="Vector (Stroke)" fill-rule="evenodd" clip-rule="evenodd" d="M6.6874 1.82253C6.85307 2.20217 6.67961 2.64424 6.29997 2.8099C5.28941 3.25089 4.40227 3.93272 3.7161 4.79577C3.02993 5.65883 2.56562 6.67683 2.36377 7.76078C2.16192 8.84473 2.22867 9.96163 2.5582 11.0138C2.88772 12.066 3.46997 13.0215 4.25406 13.7966C5.03814 14.5718 6.00018 15.1431 7.05607 15.4606C8.11195 15.7781 9.22954 15.8321 10.3111 15.6179C11.3927 15.4037 12.4053 14.9278 13.2605 14.2318C14.1156 13.5358 14.7873 12.6409 15.2167 11.6254C15.378 11.2439 15.8181 11.0654 16.1996 11.2267C16.5811 11.388 16.7596 11.8281 16.5983 12.2096C16.0734 13.4508 15.2525 14.5445 14.2073 15.3952C13.1621 16.2458 11.9245 16.8275 10.6025 17.0893C9.28061 17.3511 7.91468 17.2851 6.62415 16.8971C5.33362 16.5091 4.15779 15.8108 3.19947 14.8633C2.24114 13.9159 1.5295 12.7481 1.12675 11.4621C0.724004 10.1761 0.642416 8.81101 0.889121 7.48618C1.13583 6.16135 1.70331 4.91712 2.54197 3.86228C3.38062 2.80744 4.46491 1.97409 5.70003 1.4351C6.07967 1.26944 6.52173 1.44289 6.6874 1.82253Z" fill="#D9D0EC"/>
<path id="Vector (Stroke)_2" fill-rule="evenodd" clip-rule="evenodd" d="M8.46967 0.96967C8.61032 0.829018 8.80109 0.75 9 0.75C10.0834 0.75 11.1562 0.963393 12.1571 1.37799C13.1581 1.7926 14.0675 2.40029 14.8336 3.16637C15.5997 3.93245 16.2074 4.84192 16.622 5.84286C17.0366 6.8438 17.25 7.91659 17.25 9C17.25 9.41421 16.9142 9.75 16.5 9.75H9C8.58579 9.75 8.25 9.41421 8.25 9V1.5C8.25 1.30109 8.32902 1.11032 8.46967 0.96967ZM9.75 2.2918V8.25H15.7082C15.6379 7.62106 15.4793 7.00387 15.2362 6.41689C14.897 5.59794 14.3998 4.85382 13.773 4.22703C13.1462 3.60023 12.4021 3.10303 11.5831 2.76381C10.9961 2.52068 10.3789 2.36211 9.75 2.2918Z" fill="#D9D0EC"/>
</g>
</svg>
