<svg width="40" height="40" viewBox="0 0 40 40" fill="none" xmlns="http://www.w3.org/2000/svg">
<g id="FiUsers" opacity="0.7">
<path id="Vector (Stroke)" fill-rule="evenodd" clip-rule="evenodd" d="M2.44078 25.774C4.00358 24.2112 6.1232 23.3333 8.33333 23.3333H21.6667C23.8768 23.3333 25.9964 24.2112 27.5592 25.774C29.122 27.3368 30 29.4564 30 31.6666V34.9999C30 35.9204 29.2538 36.6666 28.3333 36.6666C27.4129 36.6666 26.6667 35.9204 26.6667 34.9999V31.6666C26.6667 30.3405 26.1399 29.0687 25.2022 28.1311C24.2645 27.1934 22.9927 26.6666 21.6667 26.6666H8.33333C7.00725 26.6666 5.73548 27.1934 4.7978 28.1311C3.86012 29.0687 3.33333 30.3405 3.33333 31.6666V34.9999C3.33333 35.9204 2.58714 36.6666 1.66667 36.6666C0.746192 36.6666 0 35.9204 0 34.9999V31.6666C0 29.4564 0.877974 27.3368 2.44078 25.774Z" fill="white"/>
<path id="Vector (Stroke)_2" fill-rule="evenodd" clip-rule="evenodd" d="M15 6.66659C12.2386 6.66659 9.99999 8.90516 9.99999 11.6666C9.99999 14.428 12.2386 16.6666 15 16.6666C17.7614 16.6666 20 14.428 20 11.6666C20 8.90516 17.7614 6.66659 15 6.66659ZM6.66666 11.6666C6.66666 7.06421 10.3976 3.33325 15 3.33325C19.6024 3.33325 23.3333 7.06421 23.3333 11.6666C23.3333 16.269 19.6024 19.9999 15 19.9999C10.3976 19.9999 6.66666 16.269 6.66666 11.6666Z" fill="white"/>
<path id="Vector (Stroke)_3" fill-rule="evenodd" clip-rule="evenodd" d="M31.7196 24.8C31.9497 23.9087 32.8588 23.3728 33.75 23.6029C35.5378 24.0645 37.1216 25.1068 38.2528 26.566C39.3841 28.0253 39.9986 29.819 40 31.6654L40 35C40 35.9204 39.2538 36.6666 38.3333 36.6666C37.4129 36.6666 36.6667 35.9204 36.6667 35V31.6679C36.6667 31.6677 36.6667 31.668 36.6667 31.6679C36.6657 30.5602 36.297 29.4837 35.6184 28.6083C34.9396 27.7327 33.9893 27.1073 32.9167 26.8304C32.0254 26.6003 31.4895 25.6912 31.7196 24.8Z" fill="white"/>
<path id="Vector (Stroke)_4" fill-rule="evenodd" clip-rule="evenodd" d="M25.0521 4.80323C25.2804 3.91152 26.1884 3.37373 27.0801 3.60205C28.8726 4.06101 30.4614 5.10351 31.596 6.56519C32.7306 8.02688 33.3464 9.82461 33.3464 11.675C33.3464 13.5253 32.7306 15.323 31.596 16.7847C30.4614 18.2464 28.8726 19.2889 27.0801 19.7479C26.1884 19.9762 25.2804 19.4384 25.0521 18.5467C24.8238 17.655 25.3616 16.747 26.2533 16.5187C27.3288 16.2433 28.2821 15.6178 28.9628 14.7408C29.6436 13.8638 30.0131 12.7852 30.0131 11.675C30.0131 10.5648 29.6436 9.48611 28.9628 8.6091C28.2821 7.73209 27.3288 7.10659 26.2533 6.83121C25.3616 6.6029 24.8238 5.69494 25.0521 4.80323Z" fill="white"/>
</g>
</svg>
