<svg width="230" height="230" viewBox="0 0 230 230" fill="none" xmlns="http://www.w3.org/2000/svg">
<g id="Group 2">
<path id="Ellipse 1" d="M114.576 21.9009C99.9392 21.9009 85.5069 25.3363 72.4399 31.9307C59.373 38.5251 48.0362 48.0944 39.3417 59.8688C30.6471 71.6431 24.8375 85.2939 22.3802 99.7228C19.9229 114.152 20.8866 128.956 25.1936 142.945C29.5007 156.933 37.0309 169.715 47.1785 180.263C57.326 190.811 69.8077 198.83 83.6192 203.675C97.4308 208.52 112.187 210.055 126.7 208.158C141.213 206.26 155.078 200.983 167.18 192.75L156.801 177.494C147.087 184.102 135.957 188.338 124.308 189.861C112.658 191.384 100.814 190.152 89.7271 186.263C78.6406 182.374 68.6216 175.937 60.4762 167.47C52.3307 159.004 46.2863 148.743 42.829 137.515C39.3718 126.286 38.5982 114.403 40.5707 102.821C42.5431 91.2386 47.2065 80.2812 54.1856 70.83C61.1647 61.3787 70.2647 53.6974 80.7535 48.4041C91.2423 43.1108 102.827 40.3533 114.576 40.3533L114.576 21.9009Z" fill="#6FCF97"/>
<path id="Ellipse 2" d="M166.242 193.392C182.985 182.285 195.707 166.08 202.522 147.178C209.336 128.276 209.882 107.681 204.079 88.4446C198.275 69.2079 186.43 52.3519 170.298 40.3729C154.166 28.3938 134.605 21.9288 114.512 21.9351L114.518 40.3144C130.662 40.3093 146.379 45.5039 159.341 55.1288C172.302 64.7537 181.82 78.2971 186.483 93.7534C191.146 109.21 190.707 125.757 185.232 140.944C179.756 156.132 169.535 169.152 156.081 178.076L166.242 193.392Z" fill="#EB5757"/>
</g>
</svg>
