<svg width="32" height="32" viewBox="0 0 32 32" fill="none" xmlns="http://www.w3.org/2000/svg">
<g id="IoCloudUploadOutline">
<path id="Vector (Stroke)" fill-rule="evenodd" clip-rule="evenodd" d="M7.26944 8.7706C8.47508 5.79833 11.4949 2.98682 16 2.98682C20.847 2.98682 24.978 6.28468 25.8837 11.6215C27.1626 11.8129 28.5016 12.3027 29.6041 13.1217C30.9745 14.1397 32 15.6907 32 17.7618C32 19.7699 31.1545 21.3675 29.7781 22.4384C28.4289 23.4881 26.6332 23.9868 24.75 23.9868H20C19.4477 23.9868 19 23.5391 19 22.9868C19 22.4345 19.4477 21.9868 20 21.9868H24.75C26.3043 21.9868 27.6336 21.5728 28.55 20.8598C29.4392 20.168 30 19.1531 30 17.7618C30 16.4335 29.3693 15.4387 28.4115 14.7272C27.4291 13.9975 26.127 13.5939 24.9505 13.5356C24.4579 13.5112 24.0567 13.1313 24.0054 12.6408C23.5016 7.8202 20.0369 4.98682 16 4.98682C12.188 4.98682 9.75081 7.50157 8.95225 9.99214C8.83012 10.373 8.49277 10.6445 8.09457 10.6823C4.6486 11.0097 2 13.1312 2 16.3368C2 19.5595 4.7847 21.9868 8.5 21.9868H12C12.5523 21.9868 13 22.4345 13 22.9868C13 23.5391 12.5523 23.9868 12 23.9868H8.5C3.9653 23.9868 0 20.9291 0 16.3368C0 11.9693 3.45781 9.36004 7.26944 8.7706Z" fill="#718096"/>
<path id="Vector (Stroke)_2" fill-rule="evenodd" clip-rule="evenodd" d="M15.2929 11.2797C15.6834 10.8892 16.3166 10.8892 16.7071 11.2797L20.7071 15.2797C21.0976 15.6702 21.0976 16.3034 20.7071 16.6939C20.3166 17.0844 19.6834 17.0844 19.2929 16.6939L17 14.401V28.0131C17 28.5653 16.5523 29.0131 16 29.0131C15.4477 29.0131 15 28.5653 15 28.0131V14.401L12.7071 16.6939C12.3166 17.0844 11.6834 17.0844 11.2929 16.6939C10.9024 16.3034 10.9024 15.6702 11.2929 15.2797L15.2929 11.2797Z" fill="#718096"/>
</g>
</svg>
