<svg width="14" height="14" viewBox="0 0 14 14" fill="none" xmlns="http://www.w3.org/2000/svg">
<g id="IoCloudDownloadOutline">
<path id="Vector (Stroke)" fill-rule="evenodd" clip-rule="evenodd" d="M3.18122 3.40334C3.70925 2.10374 5.03007 0.875 7 0.875C9.11896 0.875 10.9251 2.31565 11.3232 4.64741C11.8628 4.71353 12.4417 4.87411 12.9256 5.18159C13.541 5.57267 14 6.20459 14 7.12031C14 8.00605 13.6227 8.66119 13.0022 9.07547C12.4068 9.473 11.6255 9.625 10.8281 9.625H8.75C8.50838 9.625 8.3125 9.42912 8.3125 9.1875C8.3125 8.94588 8.50838 8.75 8.75 8.75H10.8281C11.5347 8.75 12.1205 8.61202 12.5163 8.34776C12.8871 8.10026 13.125 7.7218 13.125 7.12031C13.125 6.54881 12.8594 6.17626 12.4563 5.92011C12.0328 5.65101 11.459 5.51699 10.9159 5.49009C10.7003 5.47941 10.5248 5.31321 10.5024 5.0986C10.2819 2.98961 8.76615 1.75 7 1.75C5.33226 1.75 4.26598 2.8502 3.91661 3.93983C3.86318 4.10647 3.71559 4.22524 3.54138 4.24179C2.77398 4.31469 2.0976 4.54149 1.62345 4.91323C1.16467 5.27293 0.875 5.78154 0.875 6.49688C0.875 7.21094 1.17716 7.75761 1.66866 8.13691C2.17071 8.52435 2.89061 8.75 3.71875 8.75H5.25C5.49162 8.75 5.6875 8.94588 5.6875 9.1875C5.6875 9.42912 5.49162 9.625 5.25 9.625H3.71875C2.74221 9.625 1.82147 9.3601 1.13408 8.82962C0.43612 8.29099 0 7.49234 0 6.49688C0 5.50268 0.421264 4.74391 1.08358 4.22464C1.66181 3.77129 2.40614 3.51244 3.18122 3.40334ZM7 5.6875C7.24162 5.6875 7.4375 5.88338 7.4375 6.125V11.6324L8.44088 10.6306C8.61187 10.4599 8.88888 10.4601 9.0596 10.6311C9.23032 10.8021 9.2301 11.0791 9.05912 11.2498L7.30912 12.9971C7.13832 13.1676 6.86168 13.1676 6.69088 12.9971L4.94088 11.2498C4.76989 11.0791 4.76968 10.8021 4.9404 10.6311C5.11112 10.4601 5.38813 10.4599 5.55912 10.6306L6.5625 11.6324V6.125C6.5625 5.88338 6.75838 5.6875 7 5.6875Z" fill="#4A5568"/>
</g>
</svg>
