<svg width="18" height="18" viewBox="0 0 18 18" fill="none" xmlns="http://www.w3.org/2000/svg">
<g id="IoSpeedometerOutline">
<path id="Vector" d="M11.4644 8.15274L9.79453 10.807C9.72621 10.9017 9.64312 10.9848 9.54843 11.0531C9.31985 11.2126 9.0376 11.2755 8.76295 11.2281C8.48829 11.1808 8.24339 11.027 8.08139 10.8002C7.9194 10.5734 7.85338 10.2919 7.89767 10.0167C7.94196 9.74158 8.09298 9.49498 8.31796 9.33048L10.9723 7.66055C11.0326 7.6185 11.1044 7.59595 11.1779 7.59595C11.2515 7.59595 11.3233 7.6185 11.3836 7.66055C11.4594 7.71526 11.5104 7.79774 11.5256 7.88997C11.5407 7.98219 11.5187 8.07666 11.4644 8.15274Z" fill="white"/>
<path id="Vector (Stroke)" fill-rule="evenodd" clip-rule="evenodd" d="M0.562508 10.1211C0.562718 5.46146 4.34098 1.6875 9.00001 1.6875C13.6589 1.6875 17.4371 5.46125 17.4375 10.1207M0.562508 10.1211C0.559744 12.1829 1.31463 14.174 2.6837 15.7157L2.68365 15.7157L2.68966 15.7223C2.6924 15.7253 2.69764 15.7312 2.70464 15.739C2.72878 15.7662 2.77396 15.817 2.81072 15.8545C2.94538 15.9982 3.10797 16.113 3.28856 16.1917C3.47234 16.2719 3.67075 16.313 3.87124 16.3124C4.07173 16.3119 4.26992 16.2697 4.45327 16.1886C4.63624 16.1076 4.80044 15.9896 4.93552 15.8421C5.4528 15.2801 6.08102 14.8314 6.78048 14.5245C7.48017 14.2175 8.23593 14.059 9.00001 14.059C9.76408 14.059 10.5198 14.2175 11.2195 14.5245C11.919 14.8314 12.5472 15.2801 13.0645 15.8421C13.1996 15.9896 13.3638 16.1076 13.5467 16.1886C13.7301 16.2697 13.9283 16.3119 14.1288 16.3124C14.3293 16.313 14.5277 16.2719 14.7115 16.1917C14.8952 16.1116 15.0604 15.9942 15.1964 15.8469L15.1984 15.8448L15.3109 15.7217L15.3109 15.7218L15.3163 15.7157C16.6853 14.1741 17.4402 12.1832 17.4375 10.1215M9.00001 2.8125C4.96151 2.8125 1.68751 6.08364 1.68751 10.1215L1.68751 10.1223C1.68503 11.907 2.33791 13.6305 3.52213 14.9656C3.5504 14.9965 3.56617 15.0145 3.57776 15.0277C3.59129 15.0431 3.59913 15.0521 3.61455 15.0675C3.61981 15.0727 3.62496 15.0781 3.63001 15.0836C3.66036 15.1164 3.6972 15.1426 3.7382 15.1605C3.77921 15.1784 3.82348 15.1875 3.86821 15.1874C3.91294 15.1873 3.95716 15.1779 3.99807 15.1598C4.03897 15.1417 4.07567 15.1153 4.10585 15.0823L4.10718 15.0808C4.72992 14.4041 5.48629 13.8639 6.32847 13.4943C7.17065 13.1248 8.08033 12.934 9.00001 12.934C9.91969 12.934 10.8294 13.1248 11.6715 13.4943C12.5137 13.8639 13.2701 14.4041 13.8928 15.0808L13.8942 15.0823C13.9243 15.1153 13.961 15.1417 14.0019 15.1598C14.0429 15.1779 14.0871 15.1873 14.1318 15.1874C14.1765 15.1875 14.2208 15.1784 14.2618 15.1605C14.3025 15.1428 14.3391 15.1168 14.3693 15.0843C14.3695 15.0841 14.3698 15.0838 14.37 15.0836L14.4777 14.9658C15.662 13.6306 16.315 11.9071 16.3125 10.1223L16.3125 10.1215C16.3125 6.08364 13.0385 2.8125 9.00001 2.8125Z" fill="white"/>
<path id="Vector (Stroke)_2" fill-rule="evenodd" clip-rule="evenodd" d="M9 3.9375C9.31066 3.9375 9.5625 4.18934 9.5625 4.5V5.625C9.5625 5.93566 9.31066 6.1875 9 6.1875C8.68934 6.1875 8.4375 5.93566 8.4375 5.625V4.5C8.4375 4.18934 8.68934 3.9375 9 3.9375ZM4.62467 5.74967C4.84434 5.53 5.2005 5.53 5.42017 5.74967L6.21576 6.54526C6.43543 6.76493 6.43543 7.12109 6.21576 7.34076C5.99609 7.56043 5.63993 7.56043 5.42026 7.34076L4.62467 6.54517C4.405 6.3255 4.405 5.96934 4.62467 5.74967ZM13.3753 5.74967C13.595 5.96934 13.595 6.3255 13.3753 6.54517L12.5797 7.34076C12.3601 7.56043 12.0039 7.56043 11.7842 7.34076C11.5646 7.12109 11.5646 6.76493 11.7842 6.54526L12.5798 5.74967C12.7995 5.53 13.1557 5.53 13.3753 5.74967ZM2.8125 10.125C2.8125 9.81434 3.06434 9.5625 3.375 9.5625H4.5C4.81066 9.5625 5.0625 9.81434 5.0625 10.125C5.0625 10.4357 4.81066 10.6875 4.5 10.6875H3.375C3.06434 10.6875 2.8125 10.4357 2.8125 10.125ZM12.9375 10.125C12.9375 9.81434 13.1893 9.5625 13.5 9.5625H14.625C14.9357 9.5625 15.1875 9.81434 15.1875 10.125C15.1875 10.4357 14.9357 10.6875 14.625 10.6875H13.5C13.1893 10.6875 12.9375 10.4357 12.9375 10.125Z" fill="white"/>
</g>
</svg>
