<svg width="18" height="18" viewBox="0 0 18 18" fill="none" xmlns="http://www.w3.org/2000/svg">
<g id="IoWalletOutline">
<path id="Vector (Stroke)" fill-rule="evenodd" clip-rule="evenodd" d="M3.375 5.625C2.75368 5.625 2.25 6.12868 2.25 6.75V13.5C2.25 14.1213 2.75368 14.625 3.375 14.625H14.625C15.2463 14.625 15.75 14.1213 15.75 13.5V6.75C15.75 6.12868 15.2463 5.625 14.625 5.625H3.375ZM1.125 6.75C1.125 5.50736 2.13236 4.5 3.375 4.5H14.625C15.8676 4.5 16.875 5.50736 16.875 6.75V13.5C16.875 14.7426 15.8676 15.75 14.625 15.75H3.375C2.13236 15.75 1.125 14.7426 1.125 13.5V6.75Z" fill="#D9D0EC"/>
<path id="Vector (Stroke)_2" fill-rule="evenodd" clip-rule="evenodd" d="M12.2754 1.72793C12.609 1.66521 12.9524 1.67646 13.2812 1.76092C13.612 1.84585 13.9199 2.00274 14.183 2.22037C14.4461 2.438 14.6579 2.71102 14.8034 3.01995C14.9488 3.32888 15.0243 3.6661 15.0244 4.00755V5.06242H13.8994V4.00792C13.8994 4.00786 13.8994 4.00798 13.8994 4.00792C13.8993 3.83208 13.8604 3.65824 13.7855 3.49915C13.7106 3.34001 13.6015 3.19936 13.4659 3.08724C13.3304 2.97513 13.1718 2.89431 13.0014 2.85056C12.831 2.8068 12.6531 2.80119 12.4803 2.83412L12.4696 2.83604L3.21674 4.41532C2.94525 4.46821 2.70044 4.61364 2.52412 4.82688C2.34676 5.04138 2.24981 5.31105 2.25 5.58939V7.31242H1.125V5.58994C1.125 5.58988 1.125 5.58999 1.125 5.58994C1.12472 5.04978 1.31291 4.52628 1.65712 4.10999C2.00141 3.69361 2.48021 3.41042 3.01095 3.30928L3.02161 3.30736L12.2754 1.72793Z" fill="#D9D0EC"/>
<path id="Vector" d="M12.9375 11.25C12.715 11.25 12.4975 11.184 12.3125 11.0604C12.1275 10.9368 11.9833 10.7611 11.8981 10.5555C11.813 10.35 11.7907 10.1238 11.8341 9.90552C11.8775 9.6873 11.9847 9.48684 12.142 9.32951C12.2993 9.17217 12.4998 9.06503 12.718 9.02162C12.9363 8.97821 13.1625 9.00049 13.368 9.08564C13.5736 9.17078 13.7493 9.31498 13.8729 9.49998C13.9965 9.68499 14.0625 9.9025 14.0625 10.125C14.0625 10.4234 13.944 10.7095 13.733 10.9205C13.522 11.1315 13.2359 11.25 12.9375 11.25Z" fill="#D9D0EC"/>
</g>
</svg>
