<svg width="40" height="40" viewBox="0 0 40 40" fill="none" xmlns="http://www.w3.org/2000/svg">
<g id="IoWalletOutline" opacity="0.7">
<path id="Vector (Stroke)" fill-rule="evenodd" clip-rule="evenodd" d="M7.5 12.5C6.11929 12.5 5 13.6193 5 15V30C5 31.3807 6.11929 32.5 7.5 32.5H32.5C33.8807 32.5 35 31.3807 35 30V15C35 13.6193 33.8807 12.5 32.5 12.5H7.5ZM2.5 15C2.5 12.2386 4.73858 10 7.5 10H32.5C35.2614 10 37.5 12.2386 37.5 15V30C37.5 32.7614 35.2614 35 32.5 35H7.5C4.73858 35 2.5 32.7614 2.5 30V15Z" fill="#4A5568"/>
<path id="Vector (Stroke)_2" fill-rule="evenodd" clip-rule="evenodd" d="M27.2787 3.83998C28.0201 3.70061 28.7831 3.72561 29.5138 3.91329C30.2488 4.10203 30.933 4.45066 31.5177 4.93429C32.1024 5.41791 32.5731 6.02463 32.8963 6.71114C33.2195 7.39764 33.3873 8.14703 33.3875 8.90581V11.25H30.8875V8.90662C30.8875 8.90648 30.8875 8.90675 30.8875 8.90662C30.8873 8.51586 30.8009 8.12956 30.6345 7.77603C30.468 7.42237 30.2255 7.10982 29.9243 6.86068C29.6231 6.61154 29.2706 6.43194 28.892 6.33471C28.5134 6.23748 28.118 6.225 27.734 6.29818L27.7103 6.30246L7.14831 9.81196C6.54499 9.92949 6.00098 10.2527 5.60916 10.7265C5.21502 11.2032 4.99958 11.8025 5 12.421V16.25H2.5V12.4222C2.5 12.4221 2.5 12.4223 2.5 12.4222C2.49938 11.2219 2.91757 10.0585 3.68248 9.13345C4.44757 8.20815 5.51158 7.57885 6.691 7.35409L6.71469 7.34981L27.2787 3.83998Z" fill="#4A5568"/>
<path id="Vector" d="M28.75 25C28.2555 25 27.7722 24.8534 27.3611 24.5787C26.95 24.304 26.6295 23.9135 26.4403 23.4567C26.2511 22.9999 26.2016 22.4972 26.298 22.0123C26.3945 21.5273 26.6326 21.0819 26.9822 20.7322C27.3319 20.3826 27.7773 20.1445 28.2623 20.048C28.7472 19.9516 29.2499 20.0011 29.7067 20.1903C30.1635 20.3795 30.554 20.7 30.8287 21.1111C31.1034 21.5222 31.25 22.0055 31.25 22.5C31.25 23.163 30.9866 23.7989 30.5178 24.2678C30.0489 24.7366 29.413 25 28.75 25Z" fill="#4A5568"/>
</g>
</svg>
