<svg width="40" height="40" viewBox="0 0 40 40" fill="none" xmlns="http://www.w3.org/2000/svg">
<g id="user 1" clip-path="url(#clip0_511_22106)">
<g id="Group">
<g id="Group_2">
<g id="Group_3">
<path id="Vector" d="M20 39.2188C30.6142 39.2188 39.2188 30.6142 39.2188 20C39.2188 9.38578 30.6142 0.78125 20 0.78125C9.38578 0.78125 0.78125 9.38578 0.78125 20C0.78125 30.6142 9.38578 39.2188 20 39.2188Z" fill="#7535FC"/>
</g>
<g id="Group_4">
<path id="Vector_2" d="M20 35.625C27.4747 35.625 33.5341 32.1272 33.5341 27.8125C33.5341 23.4978 27.4747 20 20 20C12.5253 20 6.46582 23.4978 6.46582 27.8125C6.46582 32.1272 12.5253 35.625 20 35.625Z" fill="#EDEFF1"/>
</g>
<g id="Group_5">
<path id="Vector_3" d="M20 20C24.3147 20 27.8125 16.5022 27.8125 12.1875C27.8125 7.87278 24.3147 4.375 20 4.375C15.6853 4.375 12.1875 7.87278 12.1875 12.1875C12.1875 16.5022 15.6853 20 20 20Z" fill="#EDEFF1"/>
</g>
</g>
<g id="Group_6">
<path id="Vector_4" d="M20 29.375L26.3058 21.3251C24.3771 20.4733 22.2439 20 20 20C17.7561 20 15.6229 20.4733 13.6942 21.3251L20 29.375Z" fill="#D3D3D3"/>
</g>
</g>
</g>
<defs>
<clipPath id="clip0_511_22106">
<rect width="40" height="40" fill="white"/>
</clipPath>
</defs>
</svg>
